<svg width="32" height="32" viewBox="0 0 32 32" fill="none" xmlns="http://www.w3.org/2000/svg">
<circle cx="16" cy="16" r="16" fill="#6DB393" fill-opacity="0.15"/>
<path d="M23.5 15.3099V15.9999C23.4991 17.6172 22.9754 19.1909 22.007 20.4863C21.0386 21.7816 19.6775 22.7293 18.1265 23.1878C16.5756 23.6464 14.9179 23.5913 13.4009 23.0308C11.8838 22.4703 10.5885 21.4345 9.70822 20.0777C8.82795 18.7209 8.40984 17.1159 8.51626 15.5021C8.62267 13.8883 9.24791 12.3521 10.2987 11.1227C11.3495 9.89326 12.7696 9.03644 14.3471 8.68001C15.9247 8.32358 17.5752 8.48665 19.0525 9.1449" stroke="#6DB393" stroke-linecap="round" stroke-linejoin="round"/>
<path d="M23.5 10L16 17.5075L13.75 15.2575" stroke="#6DB393" stroke-linecap="round" stroke-linejoin="round"/>
</svg>
