<svg width="32" height="32" viewBox="0 0 32 32" fill="none" xmlns="http://www.w3.org/2000/svg">
<circle cx="16" cy="16" r="16" fill="#6DB393" fill-opacity="0.15"/>
<path d="M11.5 8.5L9.25 11.5V22C9.25 22.3978 9.40804 22.7794 9.68934 23.0607C9.97064 23.342 10.3522 23.5 10.75 23.5H21.25C21.6478 23.5 22.0294 23.342 22.3107 23.0607C22.592 22.7794 22.75 22.3978 22.75 22V11.5L20.5 8.5H11.5Z" stroke="#6DB393" stroke-linecap="round" stroke-linejoin="round"/>
<path d="M9.25 11.5H22.75" stroke="#6DB393" stroke-linecap="round" stroke-linejoin="round"/>
<path d="M19 14.5C19 15.2956 18.6839 16.0587 18.1213 16.6213C17.5587 17.1839 16.7956 17.5 16 17.5C15.2044 17.5 14.4413 17.1839 13.8787 16.6213C13.3161 16.0587 13 15.2956 13 14.5" stroke="#6DB393" stroke-linecap="round" stroke-linejoin="round"/>
</svg>
