<svg width="32" height="32" viewBox="0 0 32 32" fill="none" xmlns="http://www.w3.org/2000/svg">
<circle cx="16" cy="16" r="16" fill="#6DB393" fill-opacity="0.15"/>
<path d="M19.75 22.75V21.25C19.75 20.4544 19.4339 19.6913 18.8713 19.1287C18.3087 18.5661 17.5456 18.25 16.75 18.25H10.75C9.95435 18.25 9.19129 18.5661 8.62868 19.1287C8.06607 19.6913 7.75 20.4544 7.75 21.25V22.75" stroke="#6DB393" stroke-linecap="round" stroke-linejoin="round"/>
<path d="M13.75 15.25C15.4069 15.25 16.75 13.9069 16.75 12.25C16.75 10.5931 15.4069 9.25 13.75 9.25C12.0931 9.25 10.75 10.5931 10.75 12.25C10.75 13.9069 12.0931 15.25 13.75 15.25Z" stroke="#6DB393" stroke-linecap="round" stroke-linejoin="round"/>
<path d="M24.25 22.7499V21.2499C24.2495 20.5852 24.0283 19.9395 23.621 19.4141C23.2138 18.8888 22.6436 18.5136 22 18.3474" stroke="#6DB393" stroke-linecap="round" stroke-linejoin="round"/>
<path d="M19 9.34741C19.6453 9.51264 20.2173 9.88794 20.6257 10.4141C21.0342 10.9404 21.2559 11.5875 21.2559 12.2537C21.2559 12.9198 21.0342 13.567 20.6257 14.0932C20.2173 14.6194 19.6453 14.9947 19 15.1599" stroke="#6DB393" stroke-linecap="round" stroke-linejoin="round"/>
</svg>
