<svg width="32" height="32" viewBox="0 0 32 32" fill="none" xmlns="http://www.w3.org/2000/svg">
<circle cx="16" cy="16" r="16" fill="#6DB393" fill-opacity="0.15"/>
<path d="M20.5 13C20.5 11.8065 20.0259 10.6619 19.182 9.81802C18.3381 8.97411 17.1935 8.5 16 8.5C14.8065 8.5 13.6619 8.97411 12.818 9.81802C11.9741 10.6619 11.5 11.8065 11.5 13C11.5 18.25 9.25 19.75 9.25 19.75H22.75C22.75 19.75 20.5 18.25 20.5 13Z" stroke="#6DB393" stroke-linecap="round" stroke-linejoin="round"/>
<path d="M17.2976 22.75C17.1658 22.9773 16.9765 23.166 16.7488 23.2971C16.5211 23.4283 16.2629 23.4973 16.0001 23.4973C15.7374 23.4973 15.4792 23.4283 15.2515 23.2971C15.0238 23.166 14.8345 22.9773 14.7026 22.75" stroke="#6DB393" stroke-linecap="round" stroke-linejoin="round"/>
</svg>
