<svg width="18" height="18" viewBox="0 0 18 18" fill="none" xmlns="http://www.w3.org/2000/svg">
<path d="M11.25 15.75V9.75C11.25 9.55109 11.171 9.36032 11.0303 9.21967C10.8897 9.07902 10.6989 9 10.5 9H7.5C7.30109 9 7.11032 9.07902 6.96967 9.21967C6.82902 9.36032 6.75 9.55109 6.75 9.75V15.75" stroke="#6DB393" stroke-linecap="round" stroke-linejoin="round"/>
<path d="M2.25 7.50012C2.24995 7.28192 2.2975 7.06633 2.38934 6.8684C2.48118 6.67047 2.6151 6.49496 2.78175 6.35412L8.03175 1.85412C8.30249 1.6253 8.64552 1.49976 9 1.49976C9.35448 1.49976 9.69751 1.6253 9.96825 1.85412L15.2183 6.35412C15.3849 6.49496 15.5188 6.67047 15.6107 6.8684C15.7025 7.06633 15.7501 7.28192 15.75 7.50012V14.2501C15.75 14.6479 15.592 15.0295 15.3107 15.3108C15.0294 15.5921 14.6478 15.7501 14.25 15.7501H3.75C3.35218 15.7501 2.97064 15.5921 2.68934 15.3108C2.40804 15.0295 2.25 14.6479 2.25 14.2501V7.50012Z" stroke="#6DB393" stroke-linecap="round" stroke-linejoin="round"/>
</svg>
