<svg width="100" height="46" viewBox="0 0 100 46" fill="none" xmlns="http://www.w3.org/2000/svg">
<path d="M1.9976 28.2979C1.9976 28.5185 2.11564 28.7224 2.30723 28.8327L11.8969 34.3536C12.0885 34.4639 12.3246 34.4639 12.5162 34.3536L22.1059 28.8327C22.2975 28.7224 22.4156 28.5185 22.4156 28.2979V26.0025L24.2734 27.6976V28.2979L24.2731 28.3392C24.2586 29.2057 23.7893 30.0027 23.0349 30.437L13.4451 35.9579C12.6787 36.3991 11.7344 36.3991 10.968 35.9579L1.37833 30.437C0.611923 29.9958 0.139792 29.1804 0.139792 28.2979V27.6976L1.9976 26.0025V28.2979Z" fill="#444A4B"/>
<path d="M10.968 9.59621C11.7344 9.15498 12.6787 9.15498 13.4451 9.59621L23.0349 15.117C23.8013 15.5583 24.2734 16.3737 24.2734 17.2562V17.8936L22.4156 19.6008V17.2562C22.4156 17.0356 22.2976 16.8317 22.106 16.7214L12.5162 11.2005C12.3246 11.0902 12.0885 11.0902 11.8969 11.2005L2.30723 16.7214C2.11564 16.8317 1.9976 17.0356 1.9976 17.2562V19.6008L0.139792 17.8936V17.2562C0.139796 16.3875 0.597303 15.5838 1.34265 15.138L1.37833 15.117L10.968 9.59621Z" fill="#444A4B"/>
<path d="M12.174 19.2297C14.0305 19.2298 15.5356 20.8325 15.5356 22.8096C15.5356 24.7867 14.0305 26.3895 12.174 26.3895C10.3174 26.3895 8.81234 24.7867 8.81234 22.8096C8.81235 20.8325 10.3174 19.2297 12.174 19.2297Z" fill="#444A4B"/>
<path fill-rule="evenodd" clip-rule="evenodd" d="M8.38883 16.077C12.0736 14.8851 15.6023 15.4411 18.9005 17.4363C20.7329 18.545 22.3423 19.919 23.6712 21.6053C23.7876 21.7535 23.8841 21.917 24.0027 22.0635C24.3768 22.5262 24.3694 23.0008 24.0169 23.4556C23.5787 24.0213 23.149 24.6 22.654 25.1136C20.9152 26.9164 18.9425 28.3968 16.5838 29.3143C15.193 29.8551 13.7511 30.108 12.3932 30.0989V30.0995C9.22388 30.1034 6.6012 29.075 4.24251 27.305C2.87726 26.2806 1.62328 25.1385 0.619067 23.7486C-0.0229695 22.86 -0.0468246 22.6354 0.637209 21.7795C2.70695 19.191 5.19622 17.1093 8.38883 16.077ZM15.1708 18.5823C13.8107 17.4674 12.2774 17.1568 10.6164 17.7858C8.85261 18.4539 7.27787 20.3201 7.31079 22.7316H7.3114C7.30232 23.8521 7.58158 24.8907 8.2253 25.8156C9.12053 27.1014 10.3428 27.8758 11.9204 27.9833C13.7539 28.1078 15.1544 27.2824 16.1796 25.8247C17.798 23.5241 17.3501 20.3687 15.1708 18.5823ZM7.12405 18.4681C5.68385 19.0597 2.86877 21.4005 1.96162 22.7893C3.41089 24.5983 5.12528 26.0917 7.18537 27.1365H7.18591C5.21324 24.2413 5.17351 21.3502 7.12405 18.4681ZM17.307 18.4878C18.3464 19.7561 18.716 21.2348 18.7171 22.8249C18.7183 24.4314 18.2402 25.879 17.1963 27.1308C19.2995 26.1047 21.0139 24.6232 22.4751 22.7921V22.7915C21.0452 20.9683 19.312 19.5694 17.307 18.4878Z" fill="#444A4B"/>
<path d="M30.9399 29.1645V16.5224H40.3145C41.3084 16.5224 42.0875 16.7247 42.6518 17.1293C43.2246 17.5338 43.511 18.1912 43.511 19.1014V20.2518C43.511 20.8755 43.372 21.3854 43.094 21.7815C42.8245 22.1692 42.416 22.4389 41.8685 22.5906C42.4497 22.7508 42.8961 23.0457 43.2077 23.4756C43.5278 23.897 43.6878 24.449 43.6878 25.1317V26.5223C43.6878 27.4578 43.393 28.132 42.8034 28.545C42.2138 28.958 41.4053 29.1645 40.3777 29.1645H30.9399ZM33.0499 27.4199H40.1503C40.5882 27.4199 40.9336 27.3314 41.1863 27.1544C41.4474 26.969 41.5779 26.6824 41.5779 26.2947V24.7018C41.5779 24.2636 41.4263 23.9517 41.1231 23.7663C40.8199 23.5809 40.4156 23.4882 39.9102 23.4882H33.0499V27.4199ZM33.0499 21.7942H39.8976C40.3693 21.7942 40.7356 21.6973 40.9968 21.5034C41.2663 21.3096 41.4011 21.0062 41.4011 20.5932V19.3922C41.4011 19.0129 41.2831 18.7306 41.0473 18.5452C40.8199 18.3598 40.4956 18.267 40.0745 18.267H33.0499V21.7942Z" fill="#444A4B"/>
<path d="M47.5136 26.7751V18.8359C47.5136 18.01 47.7368 17.4074 48.1832 17.0281C48.6296 16.6404 49.3372 16.4466 50.3058 16.4466H57.5199C58.4969 16.4466 59.2045 16.6404 59.6424 17.0281C60.0889 17.4074 60.3121 18.01 60.3121 18.8359V26.7751C60.3121 27.6432 60.0931 28.2711 59.6551 28.6588C59.2255 29.0465 58.5138 29.2403 57.5199 29.2403H50.3058C49.3203 29.2403 48.6086 29.0465 48.1706 28.6588C47.7326 28.2711 47.5136 27.6432 47.5136 26.7751ZM49.6235 26.6866C49.6235 26.8973 49.6741 27.0617 49.7751 27.1797C49.8762 27.2892 50.032 27.344 50.2426 27.344H57.5831C57.8021 27.344 57.9579 27.2892 58.0505 27.1797C58.1516 27.0617 58.2021 26.8973 58.2021 26.6866V19.0003C58.2021 18.7896 58.1516 18.6295 58.0505 18.5199C57.9579 18.4019 57.8021 18.3429 57.5831 18.3429H50.2426C50.032 18.3429 49.8762 18.4019 49.7751 18.5199C49.6741 18.6295 49.6235 18.7896 49.6235 19.0003V26.6866Z" fill="#444A4B"/>
<path d="M73.9967 29.1645V24.803H67.2626C66.2603 24.803 65.4812 24.5712 64.9253 24.1077C64.3694 23.6441 64.0915 22.9277 64.0915 21.9585V16.5224H66.2014V22.2366C66.2014 22.4558 66.2561 22.6201 66.3656 22.7297C66.4751 22.8392 66.6394 22.894 66.8583 22.894H73.9967V16.5224H76.1066V29.1645H73.9967Z" fill="#444A4B"/>
<path d="M80.1896 29.1645V16.5224H82.2995V21.0483C82.4343 20.7533 82.6785 20.5384 83.0323 20.4035C83.386 20.2603 83.8619 20.1886 84.4599 20.1886H90.2464C91.215 20.1886 91.9183 20.3698 92.3563 20.7322C92.8027 21.0862 93.0259 21.6425 93.0259 22.401V26.9521C93.0259 27.7106 92.8027 28.2711 92.3563 28.6335C91.9183 28.9875 91.215 29.1645 90.2464 29.1645H80.1896ZM82.2995 27.344H90.259C90.478 27.344 90.6423 27.2892 90.7518 27.1797C90.8697 27.0617 90.9286 26.8973 90.9286 26.6866V22.6665C90.9286 22.4558 90.8697 22.2956 90.7518 22.1861C90.6423 22.0681 90.478 22.0091 90.259 22.0091H82.2995V27.344ZM97.928 29.1645V16.5224H100V29.1645H97.928Z" fill="#444A4B"/>
</svg>
